<?xml version="1.0" encoding="UTF-8"?>
<svg xmlns="http://www.w3.org/2000/svg" xmlns:xlink="http://www.w3.org/1999/xlink" width="291.1pt" height="180.68pt" viewBox="0 0 291.1 180.68" version="1.1">
<defs>
<clipPath id="clip1">
  <path d="M 0 0 L 291.101563 0 L 291.101563 180.679688 L 0 180.679688 Z M 0 0 "/>
</clipPath>
<clipPath id="clip2">
  <path d="M 0 0 L 291.101563 0 L 291.101563 14 L 0 14 Z M 0 0 "/>
</clipPath>
<clipPath id="clip3">
  <path d="M 0 27 L 291.101563 27 L 291.101563 42 L 0 42 Z M 0 27 "/>
</clipPath>
<clipPath id="clip4">
  <path d="M 0 55 L 291.101563 55 L 291.101563 70 L 0 70 Z M 0 55 "/>
</clipPath>
<clipPath id="clip5">
  <path d="M 0 83 L 291.101563 83 L 291.101563 98 L 0 98 Z M 0 83 "/>
</clipPath>
<clipPath id="clip6">
  <path d="M 0 111 L 291.101563 111 L 291.101563 126 L 0 126 Z M 0 111 "/>
</clipPath>
<clipPath id="clip7">
  <path d="M 0 138 L 291.101563 138 L 291.101563 153 L 0 153 Z M 0 138 "/>
</clipPath>
<clipPath id="clip8">
  <path d="M 0 166 L 291.101563 166 L 291.101563 180.679688 L 0 180.679688 Z M 0 166 "/>
</clipPath>
<clipPath id="clip9">
  <path d="M 0 0 L 291.101563 0 L 291.101563 180.679688 L 0 180.679688 Z M 0 0 "/>
</clipPath>
</defs>
<g id="surface1">
<g clip-path="url(#clip1)" clip-rule="nonzero">
<path style=" stroke:none;fill-rule:nonzero;fill:rgb(100%,100%,100%);fill-opacity:1;" d="M 291.050781 180.433594 L 291.050781 0.046875 L 0.0507813 0.046875 L 0.0507813 180.433594 L 291.050781 180.433594 "/>
</g>
<g clip-path="url(#clip2)" clip-rule="nonzero">
<path style=" stroke:none;fill-rule:nonzero;fill:rgb(81.959534%,7.058716%,25.881958%);fill-opacity:1;" d="M 291.050781 13.90625 L 291.050781 0.046875 L 0.0507813 0.046875 L 0.0507813 13.90625 L 291.050781 13.90625 "/>
</g>
<g clip-path="url(#clip3)" clip-rule="nonzero">
<path style=" stroke:none;fill-rule:nonzero;fill:rgb(81.959534%,7.058716%,25.881958%);fill-opacity:1;" d="M 291.050781 41.703125 L 291.050781 27.839844 L 0.0507813 27.839844 L 0.0507813 41.703125 L 291.050781 41.703125 "/>
</g>
<g clip-path="url(#clip4)" clip-rule="nonzero">
<path style=" stroke:none;fill-rule:nonzero;fill:rgb(81.959534%,7.058716%,25.881958%);fill-opacity:1;" d="M 291.050781 69.308594 L 291.050781 55.445313 L 0.0507813 55.445313 L 0.0507813 69.308594 L 291.050781 69.308594 "/>
</g>
<g clip-path="url(#clip5)" clip-rule="nonzero">
<path style=" stroke:none;fill-rule:nonzero;fill:rgb(81.959534%,7.058716%,25.881958%);fill-opacity:1;" d="M 291.050781 97.105469 L 291.050781 83.242188 L 0.0507813 83.242188 L 0.0507813 97.105469 L 291.050781 97.105469 "/>
</g>
<g clip-path="url(#clip6)" clip-rule="nonzero">
<path style=" stroke:none;fill-rule:nonzero;fill:rgb(81.959534%,7.058716%,25.881958%);fill-opacity:1;" d="M 291.050781 125.089844 L 291.050781 111.226563 L 0.0507813 111.226563 L 0.0507813 125.089844 L 291.050781 125.089844 "/>
</g>
<g clip-path="url(#clip7)" clip-rule="nonzero">
<path style=" stroke:none;fill-rule:nonzero;fill:rgb(81.959534%,7.058716%,25.881958%);fill-opacity:1;" d="M 291.050781 152.695313 L 291.050781 138.832031 L 0.0507813 138.832031 L 0.0507813 152.695313 L 291.050781 152.695313 "/>
</g>
<g clip-path="url(#clip8)" clip-rule="nonzero">
<path style=" stroke:none;fill-rule:nonzero;fill:rgb(81.959534%,7.058716%,25.881958%);fill-opacity:1;" d="M 291.050781 180.679688 L 291.050781 166.816406 L 0.0507813 166.816406 L 0.0507813 180.679688 L 291.050781 180.679688 "/>
</g>
<path style=" stroke:none;fill-rule:nonzero;fill:rgb(0%,24.313354%,49.411011%);fill-opacity:1;" d="M 120.875 97.046875 L 120.875 0.046875 L 0.0507813 0.046875 L 0.0507813 97.046875 L 120.875 97.046875 "/>
<path style=" stroke:none;fill-rule:nonzero;fill:rgb(100%,100%,100%);fill-opacity:1;" d="M 12.824219 8.535156 L 15.765625 8.535156 L 13.394531 10.308594 L 14.3125 13.128906 L 11.957031 11.394531 L 9.597656 13.128906 L 10.527344 10.308594 L 8.136719 8.535156 L 11.066406 8.535156 L 11.957031 5.785156 L 12.824219 8.535156 "/>
<path style=" stroke:none;fill-rule:nonzero;fill:rgb(100%,100%,100%);fill-opacity:1;" d="M 32.335938 8.535156 L 35.277344 8.535156 L 32.910156 10.308594 L 33.828125 13.128906 L 31.46875 11.394531 L 29.109375 13.128906 L 30.039063 10.308594 L 27.648438 8.535156 L 30.582031 8.535156 L 31.46875 5.785156 L 32.335938 8.535156 "/>
<path style=" stroke:none;fill-rule:nonzero;fill:rgb(100%,100%,100%);fill-opacity:1;" d="M 51.851563 8.535156 L 54.789063 8.535156 L 52.421875 10.308594 L 53.339844 13.128906 L 50.980469 11.394531 L 48.621094 13.128906 L 49.550781 10.308594 L 47.164063 8.535156 L 50.09375 8.535156 L 50.980469 5.785156 L 51.851563 8.535156 "/>
<path style=" stroke:none;fill-rule:nonzero;fill:rgb(100%,100%,100%);fill-opacity:1;" d="M 71.363281 8.535156 L 74.304688 8.535156 L 71.9375 10.308594 L 72.855469 13.128906 L 70.496094 11.394531 L 68.136719 13.128906 L 69.066406 10.308594 L 66.675781 8.535156 L 69.609375 8.535156 L 70.496094 5.785156 L 71.363281 8.535156 "/>
<path style=" stroke:none;fill-rule:nonzero;fill:rgb(100%,100%,100%);fill-opacity:1;" d="M 90.878906 8.535156 L 93.820313 8.535156 L 91.449219 10.308594 L 92.367188 13.128906 L 90.007813 11.394531 L 87.652344 13.128906 L 88.578125 10.308594 L 86.191406 8.535156 L 89.121094 8.535156 L 90.007813 5.785156 L 90.878906 8.535156 "/>
<path style=" stroke:none;fill-rule:nonzero;fill:rgb(100%,100%,100%);fill-opacity:1;" d="M 110.390625 8.535156 L 113.332031 8.535156 L 110.964844 10.308594 L 111.882813 13.128906 L 109.523438 11.394531 L 107.164063 13.128906 L 108.09375 10.308594 L 105.703125 8.535156 L 108.632813 8.535156 L 109.523438 5.785156 L 110.390625 8.535156 "/>
<path style=" stroke:none;fill-rule:nonzero;fill:rgb(100%,100%,100%);fill-opacity:1;" d="M 100.632813 18.460938 L 103.574219 18.460938 L 101.207031 20.238281 L 102.125 23.054688 L 99.765625 21.320313 L 97.40625 23.054688 L 98.335938 20.238281 L 95.945313 18.460938 L 98.878906 18.460938 L 99.765625 15.714844 L 100.632813 18.460938 "/>
<path style=" stroke:none;fill-rule:nonzero;fill:rgb(100%,100%,100%);fill-opacity:1;" d="M 90.878906 28.386719 L 93.816406 28.386719 L 91.449219 30.164063 L 92.367188 32.980469 L 90.007813 31.246094 L 87.652344 32.980469 L 88.578125 30.164063 L 86.191406 28.386719 L 89.121094 28.386719 L 90.007813 25.640625 L 90.878906 28.386719 "/>
<path style=" stroke:none;fill-rule:nonzero;fill:rgb(100%,100%,100%);fill-opacity:1;" d="M 81.121094 38.3125 L 84.0625 38.3125 L 81.691406 40.089844 L 82.613281 42.910156 L 80.253906 41.175781 L 77.894531 42.910156 L 78.824219 40.089844 L 76.433594 38.3125 L 79.363281 38.3125 L 80.253906 35.566406 L 81.121094 38.3125 "/>
<path style=" stroke:none;fill-rule:nonzero;fill:rgb(100%,100%,100%);fill-opacity:1;" d="M 71.363281 48.242188 L 74.304688 48.242188 L 71.9375 50.019531 L 72.855469 52.835938 L 70.496094 51.101563 L 68.136719 52.835938 L 69.066406 50.019531 L 66.675781 48.242188 L 69.605469 48.242188 L 70.496094 45.492188 L 71.363281 48.242188 "/>
<path style=" stroke:none;fill-rule:nonzero;fill:rgb(100%,100%,100%);fill-opacity:1;" d="M 61.605469 58.167969 L 64.546875 58.167969 L 62.179688 59.945313 L 63.097656 62.765625 L 60.738281 61.027344 L 58.378906 62.765625 L 59.308594 59.945313 L 56.917969 58.167969 L 59.851563 58.167969 L 60.738281 55.421875 L 61.605469 58.167969 "/>
<path style=" stroke:none;fill-rule:nonzero;fill:rgb(100%,100%,100%);fill-opacity:1;" d="M 51.851563 68.09375 L 54.792969 68.09375 L 52.421875 69.871094 L 53.339844 72.691406 L 50.980469 70.953125 L 48.625 72.691406 L 49.550781 69.871094 L 47.164063 68.09375 L 50.09375 68.09375 L 50.980469 65.347656 L 51.851563 68.09375 "/>
<path style=" stroke:none;fill-rule:nonzero;fill:rgb(100%,100%,100%);fill-opacity:1;" d="M 42.09375 78.023438 L 45.035156 78.023438 L 42.664063 79.800781 L 43.585938 82.617188 L 41.226563 80.882813 L 38.867188 82.617188 L 39.796875 79.800781 L 37.40625 78.023438 L 40.335938 78.023438 L 41.226563 75.273438 L 42.09375 78.023438 "/>
<path style=" stroke:none;fill-rule:nonzero;fill:rgb(100%,100%,100%);fill-opacity:1;" d="M 32.335938 87.949219 L 35.277344 87.949219 L 32.910156 89.726563 L 33.828125 92.542969 L 31.46875 90.808594 L 29.109375 92.542969 L 30.039063 89.726563 L 27.648438 87.949219 L 30.582031 87.949219 L 31.46875 85.203125 L 32.335938 87.949219 "/>
<path style=" stroke:none;fill-rule:nonzero;fill:rgb(100%,100%,100%);fill-opacity:1;" d="M 51.851563 87.949219 L 54.789063 87.949219 L 52.421875 89.726563 L 53.339844 92.542969 L 50.980469 90.808594 L 48.621094 92.542969 L 49.550781 89.726563 L 47.164063 87.949219 L 50.09375 87.949219 L 50.980469 85.203125 L 51.851563 87.949219 "/>
<path style=" stroke:none;fill-rule:nonzero;fill:rgb(100%,100%,100%);fill-opacity:1;" d="M 71.363281 87.949219 L 74.304688 87.949219 L 71.9375 89.726563 L 72.855469 92.542969 L 70.496094 90.808594 L 68.136719 92.542969 L 69.066406 89.726563 L 66.675781 87.949219 L 69.609375 87.949219 L 70.496094 85.203125 L 71.363281 87.949219 "/>
<path style=" stroke:none;fill-rule:nonzero;fill:rgb(100%,100%,100%);fill-opacity:1;" d="M 90.878906 87.949219 L 93.820313 87.949219 L 91.449219 89.726563 L 92.367188 92.542969 L 90.007813 90.808594 L 87.652344 92.542969 L 88.578125 89.726563 L 86.191406 87.949219 L 89.121094 87.949219 L 90.007813 85.203125 L 90.878906 87.949219 "/>
<path style=" stroke:none;fill-rule:nonzero;fill:rgb(100%,100%,100%);fill-opacity:1;" d="M 110.390625 87.949219 L 113.332031 87.949219 L 110.964844 89.726563 L 111.882813 92.542969 L 109.523438 90.808594 L 107.164063 92.542969 L 108.09375 89.726563 L 105.703125 87.949219 L 108.632813 87.949219 L 109.523438 85.203125 L 110.390625 87.949219 "/>
<path style=" stroke:none;fill-rule:nonzero;fill:rgb(100%,100%,100%);fill-opacity:1;" d="M 61.605469 18.460938 L 64.546875 18.460938 L 62.179688 20.238281 L 63.097656 23.054688 L 60.738281 21.320313 L 58.378906 23.054688 L 59.308594 20.238281 L 56.921875 18.460938 L 59.851563 18.460938 L 60.738281 15.714844 L 61.605469 18.460938 "/>
<path style=" stroke:none;fill-rule:nonzero;fill:rgb(100%,100%,100%);fill-opacity:1;" d="M 51.851563 28.386719 L 54.792969 28.386719 L 52.421875 30.164063 L 53.339844 32.984375 L 50.980469 31.246094 L 48.625 32.984375 L 49.550781 30.164063 L 47.164063 28.386719 L 50.09375 28.386719 L 50.980469 25.640625 L 51.851563 28.386719 "/>
<path style=" stroke:none;fill-rule:nonzero;fill:rgb(100%,100%,100%);fill-opacity:1;" d="M 42.09375 38.3125 L 45.035156 38.3125 L 42.664063 40.089844 L 43.585938 42.910156 L 41.226563 41.175781 L 38.867188 42.910156 L 39.796875 40.089844 L 37.40625 38.3125 L 40.335938 38.3125 L 41.226563 35.566406 L 42.09375 38.3125 "/>
<path style=" stroke:none;fill-rule:nonzero;fill:rgb(100%,100%,100%);fill-opacity:1;" d="M 32.335938 48.242188 L 35.277344 48.242188 L 32.910156 50.019531 L 33.828125 52.835938 L 31.46875 51.101563 L 29.109375 52.835938 L 30.039063 50.019531 L 27.648438 48.242188 L 30.582031 48.242188 L 31.46875 45.492188 L 32.335938 48.242188 "/>
<path style=" stroke:none;fill-rule:nonzero;fill:rgb(100%,100%,100%);fill-opacity:1;" d="M 22.582031 58.167969 L 25.519531 58.167969 L 23.152344 59.945313 L 24.070313 62.761719 L 21.710938 61.027344 L 19.355469 62.761719 L 20.28125 59.945313 L 17.894531 58.167969 L 20.824219 58.167969 L 21.710938 55.421875 L 22.582031 58.167969 "/>
<path style=" stroke:none;fill-rule:nonzero;fill:rgb(100%,100%,100%);fill-opacity:1;" d="M 22.578125 18.460938 L 25.519531 18.460938 L 23.152344 20.238281 L 24.070313 23.054688 L 21.710938 21.320313 L 19.351563 23.054688 L 20.28125 20.238281 L 17.894531 18.460938 L 20.824219 18.460938 L 21.710938 15.714844 L 22.578125 18.460938 "/>
<path style=" stroke:none;fill-rule:nonzero;fill:rgb(100%,100%,100%);fill-opacity:1;" d="M 42.09375 18.460938 L 45.035156 18.460938 L 42.664063 20.238281 L 43.585938 23.054688 L 41.226563 21.320313 L 38.867188 23.054688 L 39.796875 20.238281 L 37.40625 18.460938 L 40.335938 18.460938 L 41.226563 15.714844 L 42.09375 18.460938 "/>
<path style=" stroke:none;fill-rule:nonzero;fill:rgb(100%,100%,100%);fill-opacity:1;" d="M 32.335938 28.386719 L 35.277344 28.386719 L 32.910156 30.164063 L 33.828125 32.980469 L 31.46875 31.246094 L 29.109375 32.980469 L 30.039063 30.164063 L 27.648438 28.386719 L 30.582031 28.386719 L 31.46875 25.640625 L 32.335938 28.386719 "/>
<path style=" stroke:none;fill-rule:nonzero;fill:rgb(100%,100%,100%);fill-opacity:1;" d="M 22.578125 38.3125 L 25.519531 38.3125 L 23.152344 40.089844 L 24.070313 42.910156 L 21.710938 41.175781 L 19.351563 42.910156 L 20.28125 40.089844 L 17.894531 38.3125 L 20.824219 38.3125 L 21.710938 35.566406 L 22.578125 38.3125 "/>
<path style=" stroke:none;fill-rule:nonzero;fill:rgb(100%,100%,100%);fill-opacity:1;" d="M 12.824219 28.386719 L 15.765625 28.386719 L 13.394531 30.164063 L 14.3125 32.980469 L 11.957031 31.246094 L 9.597656 32.980469 L 10.527344 30.164063 L 8.136719 28.386719 L 11.066406 28.386719 L 11.957031 25.640625 L 12.824219 28.386719 "/>
<path style=" stroke:none;fill-rule:nonzero;fill:rgb(100%,100%,100%);fill-opacity:1;" d="M 12.824219 48.242188 L 15.765625 48.242188 L 13.394531 50.019531 L 14.3125 52.835938 L 11.957031 51.101563 L 9.597656 52.835938 L 10.527344 50.019531 L 8.136719 48.242188 L 11.066406 48.242188 L 11.957031 45.492188 L 12.824219 48.242188 "/>
<path style=" stroke:none;fill-rule:nonzero;fill:rgb(100%,100%,100%);fill-opacity:1;" d="M 12.824219 68.09375 L 15.765625 68.09375 L 13.394531 69.871094 L 14.3125 72.691406 L 11.957031 70.953125 L 9.597656 72.691406 L 10.527344 69.871094 L 8.136719 68.09375 L 11.066406 68.09375 L 11.957031 65.347656 L 12.824219 68.09375 "/>
<path style=" stroke:none;fill-rule:nonzero;fill:rgb(100%,100%,100%);fill-opacity:1;" d="M 81.121094 18.460938 L 84.0625 18.460938 L 81.691406 20.238281 L 82.613281 23.054688 L 80.253906 21.320313 L 77.894531 23.054688 L 78.824219 20.238281 L 76.433594 18.460938 L 79.363281 18.460938 L 80.253906 15.714844 L 81.121094 18.460938 "/>
<path style=" stroke:none;fill-rule:nonzero;fill:rgb(100%,100%,100%);fill-opacity:1;" d="M 71.363281 28.386719 L 74.304688 28.386719 L 71.9375 30.164063 L 72.855469 32.980469 L 70.496094 31.246094 L 68.136719 32.980469 L 69.066406 30.164063 L 66.675781 28.386719 L 69.609375 28.386719 L 70.496094 25.640625 L 71.363281 28.386719 "/>
<path style=" stroke:none;fill-rule:nonzero;fill:rgb(100%,100%,100%);fill-opacity:1;" d="M 61.605469 38.3125 L 64.546875 38.3125 L 62.179688 40.089844 L 63.097656 42.910156 L 60.738281 41.175781 L 58.378906 42.910156 L 59.308594 40.089844 L 56.921875 38.3125 L 59.851563 38.3125 L 60.738281 35.566406 L 61.605469 38.3125 "/>
<path style=" stroke:none;fill-rule:nonzero;fill:rgb(100%,100%,100%);fill-opacity:1;" d="M 51.851563 48.242188 L 54.792969 48.242188 L 52.421875 50.019531 L 53.339844 52.835938 L 50.984375 51.101563 L 48.625 52.835938 L 49.554688 50.019531 L 47.164063 48.242188 L 50.09375 48.242188 L 50.984375 45.492188 L 51.851563 48.242188 "/>
<path style=" stroke:none;fill-rule:nonzero;fill:rgb(100%,100%,100%);fill-opacity:1;" d="M 42.09375 58.167969 L 45.035156 58.167969 L 42.664063 59.945313 L 43.585938 62.765625 L 41.226563 61.027344 L 38.867188 62.765625 L 39.796875 59.945313 L 37.40625 58.167969 L 40.335938 58.167969 L 41.226563 55.421875 L 42.09375 58.167969 "/>
<path style=" stroke:none;fill-rule:nonzero;fill:rgb(100%,100%,100%);fill-opacity:1;" d="M 32.335938 68.09375 L 35.277344 68.09375 L 32.910156 69.871094 L 33.828125 72.691406 L 31.46875 70.953125 L 29.109375 72.691406 L 30.039063 69.871094 L 27.648438 68.09375 L 30.582031 68.09375 L 31.46875 65.347656 L 32.335938 68.09375 "/>
<path style=" stroke:none;fill-rule:nonzero;fill:rgb(100%,100%,100%);fill-opacity:1;" d="M 22.582031 78.023438 L 25.519531 78.023438 L 23.152344 79.800781 L 24.070313 82.617188 L 21.710938 80.882813 L 19.351563 82.617188 L 20.28125 79.800781 L 17.894531 78.023438 L 20.824219 78.023438 L 21.710938 75.273438 L 22.582031 78.023438 "/>
<path style=" stroke:none;fill-rule:nonzero;fill:rgb(100%,100%,100%);fill-opacity:1;" d="M 12.824219 87.949219 L 15.765625 87.949219 L 13.394531 89.726563 L 14.3125 92.542969 L 11.957031 90.808594 L 9.597656 92.542969 L 10.527344 89.726563 L 8.136719 87.949219 L 11.066406 87.949219 L 11.957031 85.203125 L 12.824219 87.949219 "/>
<path style=" stroke:none;fill-rule:nonzero;fill:rgb(100%,100%,100%);fill-opacity:1;" d="M 61.605469 78.023438 L 64.546875 78.023438 L 62.179688 79.800781 L 63.097656 82.617188 L 60.738281 80.878906 L 58.378906 82.617188 L 59.308594 79.800781 L 56.917969 78.023438 L 59.851563 78.023438 L 60.738281 75.273438 L 61.605469 78.023438 "/>
<path style=" stroke:none;fill-rule:nonzero;fill:rgb(100%,100%,100%);fill-opacity:1;" d="M 71.363281 68.09375 L 74.304688 68.09375 L 71.9375 69.871094 L 72.855469 72.691406 L 70.496094 70.953125 L 68.136719 72.691406 L 69.066406 69.871094 L 66.675781 68.09375 L 69.609375 68.09375 L 70.496094 65.347656 L 71.363281 68.09375 "/>
<path style=" stroke:none;fill-rule:nonzero;fill:rgb(100%,100%,100%);fill-opacity:1;" d="M 81.121094 58.167969 L 84.0625 58.167969 L 81.691406 59.945313 L 82.609375 62.765625 L 80.253906 61.027344 L 77.894531 62.765625 L 78.824219 59.945313 L 76.433594 58.167969 L 79.363281 58.167969 L 80.253906 55.421875 L 81.121094 58.167969 "/>
<path style=" stroke:none;fill-rule:nonzero;fill:rgb(100%,100%,100%);fill-opacity:1;" d="M 90.878906 48.242188 L 93.816406 48.242188 L 91.449219 50.019531 L 92.367188 52.835938 L 90.007813 51.101563 L 87.652344 52.835938 L 88.578125 50.019531 L 86.191406 48.242188 L 89.121094 48.242188 L 90.007813 45.492188 L 90.878906 48.242188 "/>
<path style=" stroke:none;fill-rule:nonzero;fill:rgb(100%,100%,100%);fill-opacity:1;" d="M 100.632813 38.316406 L 103.574219 38.316406 L 101.203125 40.089844 L 102.125 42.910156 L 99.765625 41.175781 L 97.40625 42.910156 L 98.335938 40.089844 L 95.945313 38.316406 L 98.878906 38.316406 L 99.765625 35.566406 L 100.632813 38.316406 "/>
<path style=" stroke:none;fill-rule:nonzero;fill:rgb(100%,100%,100%);fill-opacity:1;" d="M 81.121094 78.023438 L 84.0625 78.023438 L 81.691406 79.800781 L 82.613281 82.617188 L 80.253906 80.882813 L 77.894531 82.617188 L 78.824219 79.800781 L 76.433594 78.023438 L 79.363281 78.023438 L 80.253906 75.273438 L 81.121094 78.023438 "/>
<path style=" stroke:none;fill-rule:nonzero;fill:rgb(100%,100%,100%);fill-opacity:1;" d="M 90.878906 68.09375 L 93.820313 68.09375 L 91.449219 69.871094 L 92.367188 72.691406 L 90.007813 70.953125 L 87.652344 72.691406 L 88.578125 69.871094 L 86.191406 68.09375 L 89.121094 68.09375 L 90.007813 65.347656 L 90.878906 68.09375 "/>
<path style=" stroke:none;fill-rule:nonzero;fill:rgb(100%,100%,100%);fill-opacity:1;" d="M 100.632813 58.167969 L 103.574219 58.167969 L 101.207031 59.945313 L 102.125 62.765625 L 99.765625 61.027344 L 97.40625 62.765625 L 98.335938 59.945313 L 95.945313 58.167969 L 98.878906 58.167969 L 99.765625 55.421875 L 100.632813 58.167969 "/>
<path style=" stroke:none;fill-rule:nonzero;fill:rgb(100%,100%,100%);fill-opacity:1;" d="M 100.632813 78.023438 L 103.574219 78.023438 L 101.207031 79.800781 L 102.125 82.617188 L 99.765625 80.882813 L 97.40625 82.617188 L 98.335938 79.800781 L 95.945313 78.023438 L 98.878906 78.023438 L 99.765625 75.273438 L 100.632813 78.023438 "/>
<path style=" stroke:none;fill-rule:nonzero;fill:rgb(100%,100%,100%);fill-opacity:1;" d="M 110.390625 28.386719 L 113.332031 28.386719 L 110.964844 30.164063 L 111.882813 32.980469 L 109.523438 31.246094 L 107.164063 32.980469 L 108.09375 30.164063 L 105.703125 28.386719 L 108.632813 28.386719 L 109.523438 25.640625 L 110.390625 28.386719 "/>
<path style=" stroke:none;fill-rule:nonzero;fill:rgb(100%,100%,100%);fill-opacity:1;" d="M 110.390625 48.242188 L 113.332031 48.242188 L 110.964844 50.019531 L 111.882813 52.835938 L 109.523438 51.101563 L 107.164063 52.835938 L 108.09375 50.019531 L 105.703125 48.242188 L 108.632813 48.242188 L 109.523438 45.492188 L 110.390625 48.242188 "/>
<path style=" stroke:none;fill-rule:nonzero;fill:rgb(100%,100%,100%);fill-opacity:1;" d="M 110.390625 68.09375 L 113.332031 68.09375 L 110.964844 69.871094 L 111.882813 72.691406 L 109.523438 70.953125 L 107.164063 72.691406 L 108.09375 69.871094 L 105.703125 68.09375 L 108.632813 68.09375 L 109.523438 65.347656 L 110.390625 68.09375 "/>
<g clip-path="url(#clip9)" clip-rule="nonzero">
<path style="fill:none;stroke-width:1.0001;stroke-linecap:butt;stroke-linejoin:miter;stroke:rgb(13.699341%,12.199402%,12.5%);stroke-opacity:1;stroke-miterlimit:4;" d="M 2910.507813 2.464063 L 2910.507813 1806.33125 L 0.507813 1806.33125 L 0.507813 2.464063 Z M 2910.507813 2.464063 " transform="matrix(0.1,0,0,-0.1,0,180.68)"/>
</g>
</g>
</svg>
